<svg version="1.1" id="Layer_1" xmlns="http://www.w3.org/2000/svg" xmlns:xlink="http://www.w3.org/1999/xlink" x="0px" y="0px"
	 width="100%" viewBox="0 0 1049 969" enable-background="new 0 0 1049 969" xml:space="preserve">
<path fill="#000000" opacity="1.000000" stroke="none" 
	d="
M507.000000,970.000000 
	C338.020874,970.000000 169.541718,970.000000 1.031290,970.000000 
	C1.031290,647.060852 1.031290,324.121704 1.031290,1.091271 
	C350.562531,1.091271 700.125061,1.091271 1049.843750,1.091271 
	C1049.843750,323.999939 1049.843750,646.999939 1049.843750,970.000000 
	C869.121582,970.000000 688.310791,970.000000 507.000000,970.000000 
M170.261932,335.029022 
	C167.015396,334.277252 166.476883,336.742035 165.543945,338.891174 
	C122.846573,437.249054 80.130104,535.598694 37.424458,633.952942 
	C36.782513,635.431396 36.248001,636.956604 35.451126,639.005676 
	C48.009171,639.005676 59.967842,638.863098 71.919197,639.096069 
	C75.328133,639.162476 76.817474,638.022766 78.113304,634.934509 
	C85.519386,617.284607 93.258575,599.774597 100.679977,582.130920 
	C101.945084,579.123230 103.316658,577.901428 106.776749,577.913330 
	C148.426468,578.057190 190.077103,578.062378 231.726730,577.905334 
	C235.255707,577.892029 236.649033,579.231812 237.878937,582.174744 
	C243.270523,595.075684 248.837448,607.903625 254.382416,620.740051 
	C256.952667,626.690125 258.104980,634.951843 262.656799,637.879150 
	C267.412872,640.937866 275.480865,638.910217 282.102448,638.987427 
	C288.964478,639.067444 295.828186,639.005188 303.191620,639.005188 
	C302.490784,637.281738 302.139404,636.365784 301.749542,635.466370 
	C260.890015,541.205994 220.035767,446.943237 179.145676,352.696045 
	C176.583160,346.789764 173.738754,341.005768 170.261932,335.029022 
M595.316284,588.975891 
	C596.042603,587.294250 597.030029,585.674377 597.445435,583.919189 
	C598.602722,579.029480 601.452820,577.843628 606.414124,577.872498 
	C647.237793,578.109436 688.063660,578.068359 728.888062,577.905212 
	C732.679932,577.890015 734.357117,579.071228 735.772278,582.496277 
	C743.082214,600.187744 750.621155,617.785583 758.249023,635.342773 
	C758.898865,636.838501 760.765930,638.816345 762.104065,638.844788 
	C774.718018,639.111755 787.340027,639.003418 800.766663,639.003418 
	C797.332764,631.091187 794.167725,623.806519 791.009094,616.519104 
	C751.074829,524.384338 711.153198,432.244202 671.129211,340.148499 
	C670.270203,338.171844 668.238159,336.705017 666.753357,335.000336 
	C665.314026,336.768219 663.382324,338.321747 662.506165,340.334778 
	C621.763977,433.932465 581.112915,527.569885 540.454956,621.204224 
	C537.950134,626.972656 535.473938,632.753540 532.779419,639.004333 
	C545.561218,639.004333 557.710327,638.881470 569.853943,639.087463 
	C573.037659,639.141418 574.534363,638.085266 575.729248,635.206055 
	C582.046509,619.983337 588.565002,604.844116 595.316284,588.975891 
M876.686890,403.809082 
	C877.351746,396.490814 880.666260,390.396362 885.959473,385.549042 
	C900.605408,372.137115 918.533691,370.554962 937.013611,372.601501 
	C952.544128,374.321442 967.050964,379.769165 980.885315,387.026703 
	C981.953796,387.587250 984.459229,387.460052 984.966003,386.729523 
	C991.472290,377.348785 997.736084,367.799866 1004.126526,358.195679 
	C1003.150574,357.494873 1002.647644,357.073303 1002.090759,356.742462 
	C976.079346,341.287292 947.970398,333.558716 917.721008,335.271271 
	C895.286133,336.541412 874.803711,343.448242 857.409424,358.596741 
	C828.393250,383.866516 827.049133,433.670380 857.457153,459.591156 
	C872.401123,472.329926 888.954468,482.452271 905.967529,492.006378 
	C926.008118,503.260681 946.215027,514.292603 963.201599,530.134644 
	C972.843384,539.126709 980.365479,549.347229 980.657593,563.196899 
	C981.033203,581.002380 969.846069,594.996094 950.593506,600.750549 
	C925.643372,608.207764 901.377136,604.690308 878.026917,594.596436 
	C867.750122,590.154114 858.314941,583.764465 847.907715,577.928162 
	C841.311707,587.318115 834.206482,597.432922 826.583679,608.284607 
	C872.079285,641.100708 920.684814,653.994812 974.200745,633.714478 
	C1016.032104,617.862061 1029.658447,577.130371 1017.890991,537.638733 
	C1012.249634,518.706238 999.114685,504.965973 983.432922,494.165497 
	C964.261108,480.961304 944.059692,469.259613 924.435120,456.702484 
	C912.945312,449.350586 901.411316,442.004608 890.454468,433.902313 
	C880.914246,426.847687 874.936523,417.427795 876.686890,403.809082 
M492.518005,356.502258 
	C492.518005,350.878479 492.518005,345.254700 492.518005,339.491547 
	C479.631134,339.491547 467.259003,339.491547 454.479523,339.491547 
	C454.479523,341.622498 454.479492,343.426788 454.479492,345.231049 
	C454.479797,409.036713 454.537659,472.842529 454.408966,536.647949 
	C454.392548,544.784912 453.884827,552.986145 452.776855,561.043762 
	C448.923950,589.063782 430.024017,605.464111 401.830780,606.150696 
	C386.224030,606.530701 372.865997,600.778320 360.688812,591.814636 
	C354.591980,587.326782 349.057281,582.075378 343.030762,576.967896 
	C334.430054,585.163147 325.806763,593.379944 316.875854,601.889893 
	C346.406891,634.684448 381.765442,649.390686 425.426208,640.477417 
	C447.801331,635.909607 465.970703,624.676025 477.967682,604.836426 
	C487.671295,588.789429 492.214111,571.042847 492.289001,552.414612 
	C492.550232,487.444244 492.468994,422.472534 492.518005,356.502258 
z"/>
<path fill="#FCFCFC" opacity="1.000000" stroke="none" 
	d="
M170.643723,335.096954 
	C173.738754,341.005768 176.583160,346.789764 179.145676,352.696045 
	C220.035767,446.943237 260.890015,541.205994 301.749542,635.466370 
	C302.139404,636.365784 302.490784,637.281738 303.191620,639.005188 
	C295.828186,639.005188 288.964478,639.067444 282.102448,638.987427 
	C275.480865,638.910217 267.412872,640.937866 262.656799,637.879150 
	C258.104980,634.951843 256.952667,626.690125 254.382416,620.740051 
	C248.837448,607.903625 243.270523,595.075684 237.878937,582.174744 
	C236.649033,579.231812 235.255707,577.892029 231.726730,577.905334 
	C190.077103,578.062378 148.426468,578.057190 106.776749,577.913330 
	C103.316658,577.901428 101.945084,579.123230 100.679977,582.130920 
	C93.258575,599.774597 85.519386,617.284607 78.113304,634.934509 
	C76.817474,638.022766 75.328133,639.162476 71.919197,639.096069 
	C59.967842,638.863098 48.009171,639.005676 35.451126,639.005676 
	C36.248001,636.956604 36.782513,635.431396 37.424458,633.952942 
	C80.130104,535.598694 122.846573,437.249054 165.543945,338.891174 
	C166.476883,336.742035 167.015396,334.277252 170.643723,335.096954 
M137.541656,497.013153 
	C131.130905,511.861725 124.720154,526.710327 118.167862,541.886719 
	C152.747665,541.886719 186.320114,541.886719 220.588165,541.886719 
	C203.533401,502.569092 186.692383,463.744202 169.246872,423.525726 
	C158.369995,448.734497 148.105881,472.523071 137.541656,497.013153 
z"/>
<path fill="#FCFCFC" opacity="1.000000" stroke="none" 
	d="
M595.165039,589.325928 
	C588.565002,604.844116 582.046509,619.983337 575.729248,635.206055 
	C574.534363,638.085266 573.037659,639.141418 569.853943,639.087463 
	C557.710327,638.881470 545.561218,639.004333 532.779419,639.004333 
	C535.473938,632.753540 537.950134,626.972656 540.454956,621.204224 
	C581.112915,527.569885 621.763977,433.932465 662.506165,340.334778 
	C663.382324,338.321747 665.314026,336.768219 666.753357,335.000336 
	C668.238159,336.705017 670.270203,338.171844 671.129211,340.148499 
	C711.153198,432.244202 751.074829,524.384338 791.009094,616.519104 
	C794.167725,623.806519 797.332764,631.091187 800.766663,639.003418 
	C787.340027,639.003418 774.718018,639.111755 762.104065,638.844788 
	C760.765930,638.816345 758.898865,636.838501 758.249023,635.342773 
	C750.621155,617.785583 743.082214,600.187744 735.772278,582.496277 
	C734.357117,579.071228 732.679932,577.890015 728.888062,577.905212 
	C688.063660,578.068359 647.237793,578.109436 606.414124,577.872498 
	C601.452820,577.843628 598.602722,579.029480 597.445435,583.919189 
	C597.030029,585.674377 596.042603,587.294250 595.165039,589.325928 
M694.056519,486.436493 
	C685.133850,465.903015 676.211182,445.369507 666.732544,423.556519 
	C649.353027,463.827301 632.572815,502.709473 615.730408,541.735840 
	C650.110107,541.735840 683.782715,541.735840 718.007751,541.735840 
	C709.955566,523.156189 702.150635,505.147034 694.056519,486.436493 
z"/>
<path fill="#FCFCFC" opacity="1.000000" stroke="none" 
	d="
M876.635376,404.267822 
	C874.936523,417.427795 880.914246,426.847687 890.454468,433.902313 
	C901.411316,442.004608 912.945312,449.350586 924.435120,456.702484 
	C944.059692,469.259613 964.261108,480.961304 983.432922,494.165497 
	C999.114685,504.965973 1012.249634,518.706238 1017.890991,537.638733 
	C1029.658447,577.130371 1016.032104,617.862061 974.200745,633.714478 
	C920.684814,653.994812 872.079285,641.100708 826.583679,608.284607 
	C834.206482,597.432922 841.311707,587.318115 847.907715,577.928162 
	C858.314941,583.764465 867.750122,590.154114 878.026917,594.596436 
	C901.377136,604.690308 925.643372,608.207764 950.593506,600.750549 
	C969.846069,594.996094 981.033203,581.002380 980.657593,563.196899 
	C980.365479,549.347229 972.843384,539.126709 963.201599,530.134644 
	C946.215027,514.292603 926.008118,503.260681 905.967529,492.006378 
	C888.954468,482.452271 872.401123,472.329926 857.457153,459.591156 
	C827.049133,433.670380 828.393250,383.866516 857.409424,358.596741 
	C874.803711,343.448242 895.286133,336.541412 917.721008,335.271271 
	C947.970398,333.558716 976.079346,341.287292 1002.090759,356.742462 
	C1002.647644,357.073303 1003.150574,357.494873 1004.126526,358.195679 
	C997.736084,367.799866 991.472290,377.348785 984.966003,386.729523 
	C984.459229,387.460052 981.953796,387.587250 980.885315,387.026703 
	C967.050964,379.769165 952.544128,374.321442 937.013611,372.601501 
	C918.533691,370.554962 900.605408,372.137115 885.959473,385.549042 
	C880.666260,390.396362 877.351746,396.490814 876.635376,404.267822 
z"/>
<path fill="#FCFCFC" opacity="1.000000" stroke="none" 
	d="
M492.517944,357.001801 
	C492.468994,422.472534 492.550232,487.444244 492.289001,552.414612 
	C492.214111,571.042847 487.671295,588.789429 477.967682,604.836426 
	C465.970703,624.676025 447.801331,635.909607 425.426208,640.477417 
	C381.765442,649.390686 346.406891,634.684448 316.875854,601.889893 
	C325.806763,593.379944 334.430054,585.163147 343.030762,576.967896 
	C349.057281,582.075378 354.591980,587.326782 360.688812,591.814636 
	C372.865997,600.778320 386.224030,606.530701 401.830780,606.150696 
	C430.024017,605.464111 448.923950,589.063782 452.776855,561.043762 
	C453.884827,552.986145 454.392548,544.784912 454.408966,536.647949 
	C454.537659,472.842529 454.479797,409.036713 454.479492,345.231049 
	C454.479492,343.426788 454.479523,341.622498 454.479523,339.491547 
	C467.259003,339.491547 479.631134,339.491547 492.518005,339.491547 
	C492.518005,345.254700 492.518005,350.878479 492.517944,357.001801 
z"/>
<path fill="#030303" opacity="1.000000" stroke="none" 
	d="
M137.691711,496.662415 
	C148.105881,472.523071 158.369995,448.734497 169.246872,423.525726 
	C186.692383,463.744202 203.533401,502.569092 220.588165,541.886719 
	C186.320114,541.886719 152.747665,541.886719 118.167862,541.886719 
	C124.720154,526.710327 131.130905,511.861725 137.691711,496.662415 
z"/>
<path fill="#030303" opacity="1.000000" stroke="none" 
	d="
M694.201111,486.787170 
	C702.150635,505.147034 709.955566,523.156189 718.007751,541.735840 
	C683.782715,541.735840 650.110107,541.735840 615.730408,541.735840 
	C632.572815,502.709473 649.353027,463.827301 666.732544,423.556519 
	C676.211182,445.369507 685.133850,465.903015 694.201111,486.787170 
z"/>
</svg>